<svg width="29" height="32" viewBox="0 0 29 32" fill="none" xmlns="http://www.w3.org/2000/svg">
<rect x="5.5" y="7" width="18" height="18" rx="9" fill="#A2CADF"/>
<path d="M13.2 16.6429H11.3156L11.3163 16.6487C11.4012 17.0597 11.5673 17.4501 11.8051 17.7975C12.159 18.3132 12.6554 18.7174 13.2351 18.9618C13.4314 19.044 13.6361 19.1071 13.8448 19.1488C14.2776 19.2356 14.7237 19.2356 15.1565 19.1488C15.7785 19.0228 16.3493 18.7185 16.7977 18.2739L17.7182 19.1816C17.3033 19.592 16.8125 19.9196 16.2725 20.1466C15.9972 20.2619 15.7108 20.3498 15.4178 20.4089C14.8132 20.5304 14.1901 20.5304 13.5855 20.4089C13.2922 20.3495 13.0057 20.2614 12.7301 20.1459C11.9179 19.8051 11.2227 19.2394 10.728 18.5169C10.3952 18.0297 10.1624 17.4825 10.0429 16.9065C10.0247 16.8197 10.015 16.731 10.002 16.6429H8L10.6 14.0714L13.2 16.6429ZM15.8 15.3571H17.6844L17.6837 15.352C17.5139 14.528 17.0228 13.8033 16.3167 13.3347C15.9656 13.0993 15.5709 12.9349 15.1552 12.8512C14.7226 12.7644 14.2768 12.7644 13.8442 12.8512C13.4286 12.9352 13.0338 13.0994 12.6826 13.3347C12.5101 13.4501 12.3491 13.5814 12.2016 13.7268L11.2825 12.8178C11.6975 12.4075 12.1886 12.0801 12.7287 11.8535C13.0043 11.7378 13.2923 11.6497 13.5835 11.5912C14.1879 11.4696 14.8108 11.4696 15.4152 11.5912C16.5804 11.8304 17.6052 12.5096 18.2719 13.4844C18.6045 13.9713 18.8371 14.518 18.9564 15.0936C18.974 15.1804 18.9844 15.2691 18.9973 15.3571H21L18.4 17.9287L15.8 15.3571Z" fill="black"/>
<rect x="5.5" y="7" width="18" height="18" rx="9" stroke="black"/>
</svg>
