<svg width="44" height="21" viewBox="0 0 44 21" fill="none" xmlns="http://www.w3.org/2000/svg">
<rect x="0.5" y="0.5" width="43" height="20" rx="8.5" stroke="#007BFF" stroke-dasharray="4 4"/>
<path d="M8.08436 10.812C8.08436 9.996 8.26836 9.264 8.63636 8.616C9.00436 7.96 9.50436 7.448 10.1364 7.08C10.7764 6.712 11.4844 6.528 12.2604 6.528C13.1724 6.528 13.9684 6.748 14.6484 7.188C15.3284 7.628 15.8244 8.252 16.1364 9.06H14.8284C14.5964 8.556 14.2604 8.168 13.8204 7.896C13.3884 7.624 12.8684 7.488 12.2604 7.488C11.6764 7.488 11.1524 7.624 10.6884 7.896C10.2244 8.168 9.86036 8.556 9.59636 9.06C9.33236 9.556 9.20036 10.14 9.20036 10.812C9.20036 11.476 9.33236 12.06 9.59636 12.564C9.86036 13.06 10.2244 13.444 10.6884 13.716C11.1524 13.988 11.6764 14.124 12.2604 14.124C12.8684 14.124 13.3884 13.992 13.8204 13.728C14.2604 13.456 14.5964 13.068 14.8284 12.564H16.1364C15.8244 13.364 15.3284 13.984 14.6484 14.424C13.9684 14.856 13.1724 15.072 12.2604 15.072C11.4844 15.072 10.7764 14.892 10.1364 14.532C9.50436 14.164 9.00436 13.656 8.63636 13.008C8.26836 12.36 8.08436 11.628 8.08436 10.812ZM20.6299 15.108C20.0139 15.108 19.4539 14.968 18.9499 14.688C18.4539 14.408 18.0619 14.012 17.7739 13.5C17.4939 12.98 17.3539 12.38 17.3539 11.7C17.3539 11.028 17.4979 10.436 17.7859 9.924C18.0819 9.404 18.4819 9.008 18.9859 8.736C19.4899 8.456 20.0539 8.316 20.6779 8.316C21.3019 8.316 21.8659 8.456 22.3699 8.736C22.8739 9.008 23.2699 9.4 23.5579 9.912C23.8539 10.424 24.0019 11.02 24.0019 11.7C24.0019 12.38 23.8499 12.98 23.5459 13.5C23.2499 14.012 22.8459 14.408 22.3339 14.688C21.8219 14.968 21.2539 15.108 20.6299 15.108ZM20.6299 14.148C21.0219 14.148 21.3899 14.056 21.7339 13.872C22.0779 13.688 22.3539 13.412 22.5619 13.044C22.7779 12.676 22.8859 12.228 22.8859 11.7C22.8859 11.172 22.7819 10.724 22.5739 10.356C22.3659 9.988 22.0939 9.716 21.7579 9.54C21.4219 9.356 21.0579 9.264 20.6659 9.264C20.2659 9.264 19.8979 9.356 19.5619 9.54C19.2339 9.716 18.9699 9.988 18.7699 10.356C18.5699 10.724 18.4699 11.172 18.4699 11.7C18.4699 12.236 18.5659 12.688 18.7579 13.056C18.9579 13.424 19.2219 13.7 19.5499 13.884C19.8779 14.06 20.2379 14.148 20.6299 14.148ZM26.5297 9.492C26.7217 9.116 26.9937 8.824 27.3457 8.616C27.7057 8.408 28.1417 8.304 28.6537 8.304V9.432H28.3657C27.1417 9.432 26.5297 10.096 26.5297 11.424V15H25.4377V8.424H26.5297V9.492ZM35.9142 11.46C35.9142 11.668 35.9022 11.888 35.8782 12.12H30.6222C30.6622 12.768 30.8822 13.276 31.2822 13.644C31.6902 14.004 32.1822 14.184 32.7582 14.184C33.2302 14.184 33.6222 14.076 33.9342 13.86C34.2542 13.636 34.4782 13.34 34.6062 12.972H35.7822C35.6062 13.604 35.2542 14.12 34.7262 14.52C34.1982 14.912 33.5422 15.108 32.7582 15.108C32.1342 15.108 31.5742 14.968 31.0782 14.688C30.5902 14.408 30.2062 14.012 29.9262 13.5C29.6462 12.98 29.5062 12.38 29.5062 11.7C29.5062 11.02 29.6422 10.424 29.9142 9.912C30.1862 9.4 30.5662 9.008 31.0542 8.736C31.5502 8.456 32.1182 8.316 32.7582 8.316C33.3822 8.316 33.9342 8.452 34.4142 8.724C34.8942 8.996 35.2622 9.372 35.5182 9.852C35.7822 10.324 35.9142 10.86 35.9142 11.46ZM34.7862 11.232C34.7862 10.816 34.6942 10.46 34.5102 10.164C34.3262 9.86 34.0742 9.632 33.7542 9.48C33.4422 9.32 33.0942 9.24 32.7102 9.24C32.1582 9.24 31.6862 9.416 31.2942 9.768C30.9102 10.12 30.6902 10.608 30.6342 11.232H34.7862Z" fill="#007BFF"/>
</svg>
