<svg width="26" height="29" viewBox="0 0 26 29" fill="none" xmlns="http://www.w3.org/2000/svg">
<rect width="26" height="28.007" rx="13" fill="#A2CADF"/>
<path d="M11 15.004H8.101L8.102 15.013C8.23257 15.6524 8.48813 16.2597 8.854 16.8C9.39845 17.6022 10.1621 18.2309 11.054 18.6111C11.356 18.7391 11.671 18.8371 11.992 18.9021C12.6579 19.0371 13.3441 19.0371 14.01 18.9021C14.967 18.706 15.8451 18.2327 16.535 17.5411L17.951 18.9531C17.3128 19.5915 16.5578 20.1011 15.727 20.4541C15.3033 20.6335 14.8628 20.7702 14.412 20.8622C13.4818 21.0512 12.5232 21.0512 11.593 20.8622C11.1419 20.7698 10.701 20.6328 10.277 20.4531C9.02753 19.923 7.95793 19.043 7.197 17.9191C6.68489 17.1612 6.32676 16.31 6.143 15.414C6.115 15.279 6.1 15.141 6.08 15.004H3L7 11.0039L11 15.004ZM15 13.0039H17.899L17.898 12.9959C17.6367 11.7141 16.8812 10.5868 15.795 9.85782C15.2548 9.49164 14.6475 9.23604 14.008 9.10579C13.3424 8.97079 12.6566 8.97079 11.991 9.10579C11.3516 9.23637 10.7443 9.49194 10.204 9.85782C9.93862 10.0373 9.69085 10.2416 9.464 10.4678L8.05 9.05379C8.68851 8.41559 9.44392 7.9063 10.275 7.55375C10.699 7.37374 11.142 7.23674 11.59 7.14574C12.5198 6.95663 13.4782 6.95663 14.408 7.14574C16.2005 7.51779 17.7773 8.57436 18.803 10.0908C19.3146 10.8481 19.6724 11.6986 19.856 12.5939C19.883 12.7289 19.899 12.8669 19.919 13.0039H23L19 17.004L15 13.0039Z" fill="white"/>
</svg>
