<svg width="33" height="31" viewBox="0 0 33 31" fill="none" xmlns="http://www.w3.org/2000/svg">
<path d="M6.00057 0L4.39143 1.639L6.78571 4.08002L8.39257 2.44102L5.99943 0H6.00057ZM27.0006 0L24.6063 2.44102L26.2143 4.08002L28.6074 1.64017L26.9994 0H27.0006ZM16.5 0.72741C16.1229 0.732072 15.7411 0.754221 15.3571 0.802016C15.3457 0.802016 15.3343 0.799684 15.3229 0.802016C10.6874 1.34408 6.99829 5.16414 6.35714 9.87132C5.84514 13.6599 7.37657 17.0953 9.92857 19.3078C10.9725 20.2166 11.6786 21.4635 11.9286 22.84V29.8343H14.5343C14.932 30.5302 15.6577 31 16.5 31C17.3423 31 18.068 30.5302 18.4657 29.8343H21.0714V25.1714H21.1789V23.7865C21.1789 22.0776 22.0497 20.3546 23.4646 19.0152C25.3571 17.0825 26.7857 14.3372 26.7857 11.1839C26.7857 5.42526 22.1389 0.673786 16.5 0.72741ZM16.5 3.05885C20.9171 2.9959 24.5 6.68424 24.5 11.1839C24.5 13.6249 23.3914 15.7745 21.8566 17.3389L21.8931 17.3762C20.3679 18.8109 19.3816 20.7438 19.1046 22.8411H14.1057C13.8543 20.8431 13.0143 18.9091 11.4269 17.5219C9.40743 15.7734 8.204 13.1388 8.60629 10.1639C9.10571 6.4919 12.0269 3.53913 15.6063 3.13462C15.9018 3.0926 16.1994 3.06769 16.4977 3.06002L16.5 3.05885ZM0.5 11.1839V13.5154H3.92857V11.1839H0.5ZM29.0714 11.1839V13.5154H32.5V11.1839H29.0714ZM6.78571 20.6193L4.39257 23.0591L6.00057 24.6993L8.39143 22.2583L6.78571 20.6193ZM26.2143 20.6193L24.6074 22.2583L26.9994 24.6993L28.6074 23.0591L26.2143 20.6193ZM14.2143 25.1726H18.7857V27.504H14.2143V25.1726Z" fill="#FFFFFF"/>
</svg>
